<svg preserveAspectRatio="xMidYMid meet" data-bbox="0 0 520.71 166.31" viewBox="0 0 520.71 166.3" xmlns="http://www.w3.org/2000/svg" data-type="ugc" role="presentation" aria-hidden="true" aria-label="">
    <g>
        <path d="M14.76 7.38A7.38 7.38 0 1 1 0 7.38a7.38 7.38 0 0 1 14.76 0z"></path>
        <path d="M35.36 11.64a7.38 7.38 0 1 1-14.76 0 7.38 7.38 0 0 1 14.76 0z"></path>
        <path d="M21.19 26.48a7.38 7.38 0 1 1-14.76 0 7.38 7.38 0 0 1 14.76 0z"></path>
        <path d="M50.13 26.48a7.38 7.38 0 1 1-14.76 0 7.38 7.38 0 0 1 14.76 0z"></path>
        <path d="M62.65 21.73a7.38 7.38 0 0 0-10.4-.84l-.06.05a7.78 7.78 0 0 1 .75.77A7.37 7.37 0 0 1 52.13 32a7.38 7.38 0 0 0 10.52-10.27Z"></path>
        <path d="M64.38 69.63a7.38 7.38 0 1 1-14.76 0 7.38 7.38 0 0 1 14.76 0z"></path>
        <path d="M37.37 74.68a7.39 7.39 0 0 0 10.43.34l.06-.07a6.85 6.85 0 0 1-.8-.72 7.39 7.39 0 0 1 .28-10.34 7.38 7.38 0 0 0-10 10.82Z"></path>
        <path d="M78.1 53.67a7.38 7.38 0 1 1-14.76 0 7.38 7.38 0 0 1 14.76 0z"></path>
        <path d="M74.21 34.89a7.37 7.37 0 0 1 1.61 10.3l-.05.07a6.78 6.78 0 0 0-.81-.7 7.39 7.39 0 0 0-10.26 1.53 7.37 7.37 0 0 1 9.51-11.2Z"></path>
        <path fill="#00f422" d="M35.36 39.79a7.38 7.38 0 1 1-14.76 0 7.38 7.38 0 0 1 14.76 0z"></path>
        <path d="M32.73 59.32a7.39 7.39 0 0 0 .92-10.43h-.06a6.73 6.73 0 0 1-.76.75 7.38 7.38 0 0 1-10.34-.84 7.38 7.38 0 0 0 10.24 10.52Z"></path>
        <path d="M78.59 82.52a7.38 7.38 0 1 1-14.76 0 7.38 7.38 0 0 1 14.76 0z"></path>
        <path d="M92.67 69.63a7.38 7.38 0 1 1-14.76 0 7.38 7.38 0 0 1 14.76 0z"></path>
        <path d="M91.53 95.45a7.38 7.38 0 1 1-14.76 0 7.38 7.38 0 0 1 14.76 0z"></path>
        <path d="M105.61 82.52a7.38 7.38 0 1 1-14.76 0 7.38 7.38 0 0 1 14.76 0z"></path>
        <path stroke="#ffffff" stroke-miterlimit="10" stroke-width="2" fill="#00f422" d="M91.99 82.52a7.38 7.38 0 1 1-14.76 0 7.38 7.38 0 0 1 14.76 0z"></path>
        <path d="M14.76 158.92a7.38 7.38 0 1 1-14.76 0 7.38 7.38 0 0 1 14.76 0z"></path>
        <path d="M19.02 138.01a7.38 7.38 0 1 1-14.76 0 7.38 7.38 0 0 1 14.76 0z"></path>
        <path d="M33.86 152.5a7.38 7.38 0 1 1-14.76 0 7.38 7.38 0 0 1 14.76 0z"></path>
        <path d="M33.86 124.7a7.38 7.38 0 1 1-14.76 0 7.38 7.38 0 0 1 14.76 0z"></path>
        <path d="M21.73 105.06a7.36 7.36 0 0 0-.9 10.38l.06.06a6.82 6.82 0 0 1 .76-.76 7.38 7.38 0 0 1 10.34.83 7.37 7.37 0 0 0-10.26-10.51Z"></path>
        <path d="M76.48 110.7a7.38 7.38 0 1 1-14.76 0 7.38 7.38 0 0 1 14.76 0z"></path>
        <path d="M74.68 130.08a7.39 7.39 0 0 0 .34-10.43l-.07-.06a6.85 6.85 0 0 1-.72.8 7.38 7.38 0 0 1-10.37-.28 7.38 7.38 0 0 0 10.82 10Z"></path>
        <path d="M62.45 96.79a7.38 7.38 0 1 1-14.76 0 7.38 7.38 0 0 1 14.76 0z"></path>
        <path d="M34.86 92.44a7.37 7.37 0 0 1 10.27-1.55h.07a6.88 6.88 0 0 0-.7.82 7.39 7.39 0 0 0 1.53 10.26 7.38 7.38 0 0 1-11.21-9.53Z"></path>
        <path d="M47.17 138.01a7.38 7.38 0 1 1-14.76 0 7.38 7.38 0 0 1 14.76 0z"></path>
        <path d="M59.68 133.27a7.38 7.38 0 0 0-10.4-.9l-.06.06a6.82 6.82 0 0 1 .76.76 7.37 7.37 0 0 1-.85 10.34 7.37 7.37 0 0 0 10.54-10.26Z"></path>
        <path d="M169.55 7.38a7.38 7.38 0 1 1-14.76 0 7.38 7.38 0 0 1 14.76 0z"></path>
        <path d="M165.3 25.45a7.38 7.38 0 1 1-14.76 0 7.38 7.38 0 0 1 14.76 0z"></path>
        <path fill="#00f422" d="M150.46 11.28a7.38 7.38 0 1 1-14.76 0 7.38 7.38 0 0 1 14.76 0z"></path>
        <path d="M150.46 40.22a7.38 7.38 0 1 1-14.76 0 7.38 7.38 0 0 1 14.76 0z"></path>
        <path d="M147.83 59.31a7.36 7.36 0 0 0 .9-10.42l-.06-.06a6.82 6.82 0 0 1-.76.76 7.38 7.38 0 0 1-10.34-.83 7.37 7.37 0 0 0 10.26 10.55Z"></path>
        <path d="M107.84 53.67a7.38 7.38 0 1 1-14.76 0 7.38 7.38 0 0 1 14.76 0z"></path>
        <path d="M94.88 34.89a7.38 7.38 0 0 0-.34 10.43l.06.06a6.93 6.93 0 0 1 .73-.8 7.37 7.37 0 0 1 10.36.28 7.37 7.37 0 0 0-10.81-10Z"></path>
        <path d="M121.87 69.63a7.38 7.38 0 1 1-14.76 0 7.38 7.38 0 0 1 14.76 0z"></path>
        <path d="M134.7 73.99a7.38 7.38 0 0 1-10.31 1.6l-.07-.06a6.78 6.78 0 0 0 .7-.81 7.39 7.39 0 0 0-1.53-10.26 7.38 7.38 0 0 1 11.21 9.53Z"></path>
        <path d="M137.14 25.45a7.38 7.38 0 1 1-14.76 0 7.38 7.38 0 0 1 14.76 0z"></path>
        <path d="M109.88 30.2a7.37 7.37 0 0 0 10.38.91l.07-.06a9.2 9.2 0 0 1-.76-.77 7.37 7.37 0 0 1 .84-10.33 7.37 7.37 0 0 0-10.54 10.26Z"></path>
        <path d="M161.73 138.01a7.38 7.38 0 1 1-14.76 0 7.38 7.38 0 0 1 14.76 0z"></path>
        <path d="M169.55 158.92a7.38 7.38 0 1 1-14.76 0 7.38 7.38 0 0 1 14.76 0z"></path>
        <path d="M148.96 152.5a7.38 7.38 0 1 1-14.76 0 7.38 7.38 0 0 1 14.76 0z"></path>
        <path d="M134.18 138.01a7.38 7.38 0 1 1-14.76 0 7.38 7.38 0 0 1 14.76 0z"></path>
        <path d="M106.91 142.76a7.38 7.38 0 0 0 10.4.9l.06-.06a9.2 9.2 0 0 1-.76-.77 7.39 7.39 0 0 1 .83-10.33 7.37 7.37 0 0 0-10.53 10.26Z"></path>
        <path fill="#00f422" d="M119.94 96.79a7.38 7.38 0 1 1-14.76 0 7.38 7.38 0 0 1 14.76 0z"></path>
        <path d="M132.19 91.75a7.39 7.39 0 0 0-10.43-.34l-.06.07a6.75 6.75 0 0 1 .79.72 7.39 7.39 0 0 1-.27 10.37 7.38 7.38 0 0 0 10-10.82Z"></path>
        <path d="M106.22 110.7a7.38 7.38 0 1 1-14.76 0 7.38 7.38 0 0 1 14.76 0z"></path>
        <path d="M95.35 130.66a7.39 7.39 0 0 1-1.61-10.32l.06-.06a10.69 10.69 0 0 0 .81.7 7.38 7.38 0 0 0 10.26-1.54 7.38 7.38 0 0 1-9.52 11.22Z" fill="#00f422"></path>
        <path d="M148.96 124.7a7.38 7.38 0 1 1-14.76 0 7.38 7.38 0 0 1 14.76 0z"></path>
        <path d="M136.83 105.05a7.39 7.39 0 0 0-.9 10.4l.06.06a6.73 6.73 0 0 1 .76-.75 7.38 7.38 0 0 1 10.34.84 7.38 7.38 0 0 0-10.26-10.55Z"></path>
        <g style="isolation:isolate">
            <path d="m227.85 43.71 17.91 60.48h3l18-60.48h11.7l-19.33 63.45h-23.81l-19.19-63.45Z"></path>
            <path d="m293.13 80.97 15.66-1.89c-.18-5.49-3.69-8.46-10.44-8.46-6.12 0-10.44 2.61-10.44 8.46h-11c0-10.62 8.73-18 21.42-18 12.51 0 22.05 6.93 22.05 20.7v15.3h6.57v10.08h-9.18c-4 0-6.12-2.25-6.12-6.12v-1.53l1.8-5.13h-3.06c-1.71 7.29-6.21 13.68-18.18 13.68-13.68 0-15.93-8.64-15.93-13.32-.01-7.56 4.49-12.24 16.85-13.77Zm1.17 17c8.82 0 14.49-4.77 14.49-11.88l-13.66 1.72c-4.86.54-7.29 1.62-7.29 5 .04 3.55 2.83 5.17 6.43 5.17Z"></path>
            <path d="M331.35 97.08h12.6V50.46l-10.17.63V41.01l14.58-.72c4.68-.27 7.2 2.25 7.2 7v49.77h12.51v10.08h-36.72Z"></path>
            <path d="M396.51 61.08c14.22 0 24.75 8.73 24.75 23.49s-10.53 23.49-24.75 23.49-24.84-8.73-24.84-23.49 10.53-23.49 24.84-23.49Zm0 36.9c8.28 0 13.23-5.13 13.23-13.41s-4.95-13.41-13.23-13.41-13.23 5.13-13.23 13.41 4.95 13.41 13.23 13.41Z"></path>
            <g style="isolation:isolate">
                <path d="M429.13 68.19c0-4.59 2.52-7.11 7.11-6.93l27.81.72v10.08l-23.31-.63v35.73h-11.61Z"></path>
                <path d="m520.71 61.98-20.25 43.38v13.41c0 4.41-2.43 6.84-7.11 6.66l-20.22-.72v-10.08l15.84.54v-9.81L468.6 61.98h13l11.61 29v5.67h3.06v-5.69l11.52-29Z"></path>
            </g>
        </g>
    </g>
</svg>