<svg xmlns="http://www.w3.org/2000/svg" width="19" viewBox="0 0 19 19" role="img" class="cXULmD blog-icon-fill"><path d="M17,17 L13.89343,17 L13.89343,12.1275733 C13.89343,10.9651251 13.87218,9.47069458 12.2781416,9.47069458 C10.660379,9.47069458 10.4126568,10.7365137 10.4126568,12.0434478 L10.4126568,17 L7.30623235,17 L7.30623235,6.98060885 L10.2883591,6.98060885 L10.2883591,8.3495072 L10.3296946,8.3495072 C10.7445056,7.56190587 11.7585364,6.7312941 13.2709225,6.7312941 C16.418828,6.7312941 17,8.80643844 17,11.5041407 L17,17 Z M3.80289931,5.61098151 C2.80647978,5.61098151 2,4.80165627 2,3.80498046 C2,2.80903365 2.80647978,2 3.80289931,2 C4.79669898,2 5.60434314,2.80903365 5.60434314,3.80498046 C5.60434314,4.80165627 4.79669898,5.61098151 3.80289931,5.61098151 Z M2.24786773,17 L2.24786773,6.98060885 L5.35662096,6.98060885 L5.35662096,17 L2.24786773,17 Z"></path></svg>