<svg preserveAspectRatio="xMidYMid meet" data-bbox="-19 -15 436 374" viewBox="0 0 382 347" xmlns="http://www.w3.org/2000/svg" data-type="ugc" role="presentation" aria-hidden="true" aria-label="">
    <g>
        <path fill="#ebebeb" d="M345.5 0v310.7H0V0h345.5z"></path>
        <path d="M417-15v374H-19V-15h436z"></path>
        <path fill="#e2e2e2" d="M83.3 53.7c0 6.075-4.925 11-11 11s-11-4.925-11-11 4.925-11 11-11 11 4.925 11 11z"></path>
        <path fill="#e2e2e2" d="M115 62.1c0 6.075-4.925 11-11 11s-11-4.925-11-11 4.925-11 11-11 11 4.925 11 11z"></path>
        <path fill="#e2e2e2" d="M95 82.1c0 6.075-4.925 11-11 11s-11-4.925-11-11 4.925-11 11-11 11 4.925 11 11z"></path>
        <path fill="#e2e2e2" d="M134.2 81.3c0 6.075-4.925 11-11 11s-11-4.925-11-11 4.925-11 11-11 11 4.925 11 11z"></path>
        <path d="M152.1 72.7c-4.3-4.3-11.2-4.3-15.5 0l-.1.1c.4.3.8.7 1.2 1 4.2 4.2 4.3 11.1.1 15.4 4.3 3.2 10.4 2.9 14.3-1 4.3-4.2 4.3-11.2 0-15.5z" fill="#e2e2e2"></path>
        <path fill="#e2e2e2" d="M158.6 145.7c0 6.075-4.925 11-11 11s-11-4.925-11-11 4.925-11 11-11 11 4.925 11 11z"></path>
        <path d="M118.7 154.3c4.3 4.3 11.2 4.3 15.5 0l.1-.1c-.4-.3-.8-.7-1.2-1-4.2-4.2-4.3-11.1-.1-15.4-4.3-3.2-10.4-2.9-14.3 1-4.3 4.2-4.3 11.2 0 15.5z" fill="#e2e2e2"></path>
        <path fill="#e2e2e2" d="M179.5 126.6c0 6.075-4.925 11-11 11s-11-4.925-11-11 4.925-11 11-11 11 4.925 11 11z"></path>
        <path d="M174.9 95.6c4.3 4.3 4.3 11.2 0 15.5l-.1.1c-.3-.4-.7-.8-1-1.2-4.2-4.2-11.1-4.3-15.4-.1-3.2-4.3-2.9-10.4 1-14.3 4.3-4.3 11.3-4.3 15.5 0z" fill="#e2e2e2"></path>
        <path fill="#00f422" d="M116.1 103.9c0 6.075-4.925 11-11 11s-11-4.925-11-11 4.925-11 11-11 11 4.925 11 11z"></path>
        <path d="M113.7 132.8c4.3-4.3 4.3-11.2 0-15.5l-.1-.1c-.3.4-.7.8-1 1.2-4.2 4.2-11.1 4.3-15.4.1-3.2 4.3-2.9 10.4 1 14.3 4.2 4.3 11.2 4.3 15.5 0z" fill="#e2e2e2"></path>
        <path fill="#e2e2e2" d="M180.2 167.3c0 6.075-4.925 11-11 11s-11-4.925-11-11 4.925-11 11-11 11 4.925 11 11z"></path>
        <path fill="#e2e2e2" d="M201.1 148.2c0 6.075-4.925 11-11 11s-11-4.925-11-11 4.925-11 11-11 11 4.925 11 11z"></path>
        <path fill="#e2e2e2" d="M199.4 186.6c0 6.075-4.925 11-11 11s-11-4.925-11-11 4.925-11 11-11 11 4.925 11 11z"></path>
        <path fill="#e2e2e2" d="M220.3 167.3c0 6.075-4.925 11-11 11s-11-4.925-11-11 4.925-11 11-11 11 4.925 11 11z"></path>
        <path fill="#e2e2e2" d="M315.4 280.6c0 6.075-4.925 11-11 11s-11-4.925-11-11 4.925-11 11-11 11 4.925 11 11z"></path>
        <path fill="#e2e2e2" d="M283.7 272.2c0 6.075-4.925 11-11 11s-11-4.925-11-11 4.925-11 11-11 11 4.925 11 11z"></path>
        <path fill="#e2e2e2" d="M303.8 252.1c0 6.075-4.925 11-11 11s-11-4.925-11-11 4.925-11 11-11 11 4.925 11 11z"></path>
        <path fill="#e2e2e2" d="M264.5 253c0 6.075-4.925 11-11 11s-11-4.925-11-11 4.925-11 11-11 11 4.925 11 11z"></path>
        <path d="M224.6 261.5c4.3 4.3 11.2 4.3 15.5 0l.1-.1c-.4-.3-.8-.7-1.2-1-4.2-4.2-4.3-11.1-.1-15.4-4.3-3.2-10.4-2.9-14.3 1-4.3 4.3-4.3 11.2 0 15.5z" fill="#e2e2e2"></path>
        <path fill="#00f422" d="M240.1 188.5c0 6.075-4.925 11-11 11s-11-4.925-11-11 4.925-11 11-11 11 4.925 11 11z"></path>
        <path d="M257.2 172.7c-4.3-4.3-11.2-4.3-15.5 0l-.1.1c.4.3.8.7 1.2 1 4.2 4.2 4.3 11.1.1 15.4 4.3 3.2 10.4 2.9 14.3-1 4.3-4.3 4.3-11.2 0-15.5z" fill="#e2e2e2"></path>
        <path fill="#e2e2e2" d="M219.2 207.7c0 6.075-4.925 11-11 11s-11-4.925-11-11 4.925-11 11-11 11 4.925 11 11z"></path>
        <path d="M202.6 239.4c-4.7-3.8-5.4-10.7-1.5-15.4l.1-.1c.4.4.7.8 1.2 1.1 4.7 3.8 11.5 3.1 15.3-1.4 3.6 4 3.9 10.1.4 14.3-3.9 4.6-10.8 5.3-15.5 1.5z" fill="#00f422"></path>
        <path fill="#e2e2e2" d="M282.6 230.4c0 6.075-4.925 11-11 11s-11-4.925-11-11 4.925-11 11-11 11 4.925 11 11z"></path>
        <path d="M263.1 201.5c-4.3 4.3-4.3 11.2 0 15.5l.1.1c.3-.4.7-.8 1-1.2 4.2-4.2 11.1-4.3 15.4-.1 3.2-4.3 2.9-10.4-1-14.3-4.3-4.3-11.3-4.3-15.5 0z" fill="#e2e2e2"></path>
        <path fill="#e2e2e2" d="M316.1 54.4c0 6.075-4.925 11-11 11s-11-4.925-11-11 4.925-11 11-11 11 4.925 11 11z"></path>
        <path fill="#e2e2e2" d="M305.9 84.3c0 6.075-4.925 11-11 11s-11-4.925-11-11 4.925-11 11-11 11 4.925 11 11z"></path>
        <path fill="#00f422" d="M285.9 64.2c0 6.075-4.925 11-11 11s-11-4.925-11-11 4.925-11 11-11 11 4.925 11 11z"></path>
        <path fill="#e2e2e2" d="M286.7 103.5c0 6.075-4.925 11-11 11s-11-4.925-11-11 4.925-11 11-11 11 4.925 11 11z"></path>
        <path d="M281.2 135.4c4.3-4.3 4.3-11.2 0-15.5l-.1-.1c-.3.4-.7.8-1 1.2-4.2 4.2-11.1 4.3-15.4.1-3.2 4.3-2.9 10.4 1 14.3 4.3 4.3 11.2 4.3 15.5 0z" fill="#e2e2e2"></path>
        <path fill="#e2e2e2" d="M222.3 127.9c0 6.075-4.925 11-11 11s-11-4.925-11-11 4.925-11 11-11 11 4.925 11 11z"></path>
        <path d="M204 97.7c-4.3 4.3-4.3 11.2 0 15.5l.1.1c.3-.4.7-.8 1-1.2 4.2-4.2 11.1-4.3 15.4-.1 3.2-4.3 2.9-10.4-1-14.3-4.3-4.2-11.3-4.2-15.5 0z" fill="#e2e2e2"></path>
        <path fill="#e2e2e2" d="M242.3 147.9c0 6.075-4.925 11-11 11s-11-4.925-11-11 4.925-11 11-11 11 4.925 11 11z"></path>
        <path d="M261.4 155.2c-4.3 4.3-11.2 4.3-15.5 0l-.1-.1c.4-.3.8-.7 1.2-1 4.2-4.2 4.3-11.1.1-15.4 4.3-3.2 10.4-2.9 14.3 1 4.3 4.3 4.3 11.2 0 15.5z" fill="#e2e2e2"></path>
        <path fill="#e2e2e2" d="M266.4 83.1c0 6.075-4.925 11-11 11s-11-4.925-11-11 4.925-11 11-11 11 4.925 11 11z"></path>
        <path d="M224.2 93.9c4.3 4.3 11.2 4.3 15.5 0l.1-.1c-.4-.3-.8-.7-1.2-1-4.2-4.2-4.3-11.1-.1-15.4-4.3-3.2-10.4-2.9-14.3 1-4.3 4.3-4.3 11.3 0 15.5z" fill="#e2e2e2"></path>
        <path fill="#e2e2e2" d="M86.6 283.9c0 6.075-4.925 11-11 11s-11-4.925-11-11 4.925-11 11-11 11 4.925 11 11z"></path>
        <path fill="#e2e2e2" d="M96.7 253.9c0 6.075-4.925 11-11 11s-11-4.925-11-11 4.925-11 11-11 11 4.925 11 11z"></path>
        <path fill="#e2e2e2" d="M116.7 273.9c0 6.075-4.925 11-11 11s-11-4.925-11-11 4.925-11 11-11 11 4.925 11 11z"></path>
        <path fill="#e2e2e2" d="M118.2 232.4c0 6.075-4.925 11-11 11s-11-4.925-11-11 4.925-11 11-11 11 4.925 11 11z"></path>
        <path d="M99.4 202.7c-4.3 4.3-4.3 11.2 0 15.5l.1.1c.3-.4.7-.8 1-1.2 4.2-4.2 11.1-4.3 15.4-.1 3.2-4.3 2.9-10.4-1-14.3-4.3-4.3-11.2-4.3-15.5 0z" fill="#e2e2e2"></path>
        <path fill="#e2e2e2" d="M181.2 209.4c0 6.075-4.925 11-11 11s-11-4.925-11-11 4.925-11 11-11 11 4.925 11 11z"></path>
        <path d="M176.7 240.4c4.3-4.3 4.3-11.2 0-15.5l-.1-.1c-.3.4-.7.8-1 1.2-4.2 4.2-11.1 4.3-15.4.1-3.2 4.3-2.9 10.4 1 14.3 4.3 4.3 11.2 4.3 15.5 0z" fill="#e2e2e2"></path>
        <path fill="#e2e2e2" d="M161.2 189.4c0 6.075-4.925 11-11 11s-11-4.925-11-11 4.925-11 11-11 11 4.925 11 11z"></path>
        <path d="M119.2 182.9c4.3-4.3 11.2-4.3 15.5 0l.1.1c-.4.3-.8.7-1.2 1-4.2 4.2-4.3 11.1-.1 15.4-4.3 3.2-10.4 2.9-14.3-1-4.3-4.3-4.3-11.2 0-15.5z" fill="#e2e2e2"></path>
        <path fill="#e2e2e2" d="M138.5 252.8c0 6.075-4.925 11-11 11s-11-4.925-11-11 4.925-11 11-11 11 4.925 11 11z"></path>
        <path d="M156.4 244.2c-4.3-4.3-11.2-4.3-15.5 0l-.1.1c.4.3.8.7 1.2 1 4.2 4.2 4.3 11.1.1 15.4 4.3 3.2 10.4 2.9 14.3-1 4.3-4.3 4.3-11.2 0-15.5z" fill="#e2e2e2"></path>
        <path stroke="#000000" stroke-width="3" stroke-miterlimit="10" fill="#00f422" d="M200.1 167.3c0 6.075-4.925 11-11 11s-11-4.925-11-11 4.925-11 11-11 11 4.925 11 11z"></path>
    </g>
</svg>